<svg xmlns="http://www.w3.org/2000/svg" viewBox="0 0 32 32">
  <defs>
    <linearGradient id="fg" x1="0%" y1="0%" x2="100%" y2="100%">
      <stop offset="0%" stop-color="#E8C547"/>
      <stop offset="100%" stop-color="#8B6914"/>
    </linearGradient>
  </defs>
  <circle cx="16" cy="16" r="15" fill="url(#fg)"/>
  <path
    fill="#FAF8F5"
    d="M9 8h4.2c2.4 0 3.9 1.2 3.9 3.1 0 1.3-.7 2.3-1.9 2.8 1.4.4 2.2 1.5 2.2 3 0 2.1-1.7 3.4-4.3 3.4H9V8Zm3.9 5.5c.9 0 1.4-.5 1.4-1.3 0-.8-.5-1.2-1.4-1.2H11v2.5h1.9Zm.2 5.2c1 0 1.6-.5 1.6-1.4 0-.9-.6-1.4-1.6-1.4H11v2.8h2.1Z"
  />
</svg>
