<svg xmlns="http://www.w3.org/2000/svg" viewBox="0 0 40 40" fill="none">
  <defs>
    <linearGradient id="cspGold" x1="0%" y1="0%" x2="100%" y2="100%">
      <stop offset="0%" stop-color="#E8C547"/>
      <stop offset="50%" stop-color="#C9A227"/>
      <stop offset="100%" stop-color="#8B6914"/>
    </linearGradient>
  </defs>
  <circle cx="20" cy="20" r="18" fill="url(#cspGold)" stroke="#FAF8F5" stroke-width="1.25"/>
  <path    fill="#FAF8F5"
    d="M14 11h4.2c2.4 0 3.9 1.2 3.9 3.1 0 1.3-.7 2.3-1.9 2.8 1.4.4 2.2 1.5 2.2 3 0 2.1-1.7 3.4-4.3 3.4H14V11Zm3.9 5.5c.9 0 1.4-.5 1.4-1.3 0-.8-.5-1.2-1.4-1.2H16v2.5h1.9Zm.2 5.2c1 0 1.6-.5 1.6-1.4 0-.9-.6-1.4-1.6-1.4H16v2.8h2.1Z"
  />
</svg>
